<svg viewBox="0 0 32 32" xml:space="preserve" xmlns="http://www.w3.org/2000/svg" fill-rule="evenodd" clip-rule="evenodd" stroke-linejoin="round" stroke-miterlimit="2"><path d="M15 29H6.266c-.861 0-1.68-.369-2.249-1.015a2.996 2.996 0 0 1-.728-2.357l1.5-12A3 3 0 0 1 7.766 11H9V7.996A6.996 6.996 0 0 1 15.996 1h.001a6.996 6.996 0 0 1 6.996 6.996V11h1.235a2.999 2.999 0 0 1 2.976 2.628l1.5 12A2.999 2.999 0 0 1 25.728 29H17v-4a3.002 3.002 0 0 0 2.997-3c0-1.656-1.345-3-3-3h-2a1 1 0 0 1 0-2h3a1.001 1.001 0 0 0 0-2H17v-4h3.993V7.996A4.996 4.996 0 0 0 15.997 3h-.001A4.996 4.996 0 0 0 11 7.996V11h4v4h-.003a3.001 3.001 0 0 0 0 6h2a1.001 1.001 0 0 1 0 2h-3a1 1 0 0 0 0 2H15v4Z" fill="#7e7e7e" class="fill-000000"></path></svg>