<svg viewBox="0 0 32 32" xmlns="http://www.w3.org/2000/svg" xml:space="preserve" fill-rule="evenodd" clip-rule="evenodd" stroke-linejoin="round" stroke-miterlimit="2"><path d="M25.229 14.5H9.226a1.5 1.5 0 0 0 0 3h16.038l-3.114 3.114a1.501 1.501 0 0 0 2.122 2.121l4.242-4.242a3.5 3.5 0 0 0 0-4.95L24.272 9.3a1.502 1.502 0 0 0-2.122 0 1.502 1.502 0 0 0 0 2.122l3.079 3.078Z" fill="#7e7e7e" class="fill-000000"></path><path d="M20 24v-4.5H9.226a3.501 3.501 0 0 1-3.5-3.5c0-1.932 1.568-3.5 3.5-3.5H20V8a5 5 0 0 0-5-5H8a5.004 5.004 0 0 0-3.536 1.464A5.004 5.004 0 0 0 3 8v16c0 1.326.527 2.598 1.464 3.536A5.004 5.004 0 0 0 8 29h7a5.004 5.004 0 0 0 3.536-1.464A5.004 5.004 0 0 0 20 24Z" fill="#7e7e7e" class="fill-000000"></path></svg>