<svg viewBox="0 0 32 32" xml:space="preserve" xmlns="http://www.w3.org/2000/svg" fill-rule="evenodd" clip-rule="evenodd" stroke-linejoin="round" stroke-miterlimit="2"><circle cx="10" cy="7" r="5" fill="#7e7e7e" class="fill-000000"></circle><circle cx="22" cy="9" r="5" fill="#7e7e7e" class="fill-000000"></circle><path d="M2.456 16.67a.998.998 0 0 0-.364.888c.779 6.992 6.715 12.436 13.913 12.436 1.825 0 3.57-.351 5.168-.987a.997.997 0 0 0 .613-.741c.14-.734.214-1.491.214-2.266 0-6.623-5.377-12-12-12-2.857 0-5.482 1-7.544 2.67ZM19.967 16.172a13.958 13.958 0 0 1 3.948 11.371 14.03 14.03 0 0 0 5.659-8.091 1.002 1.002 0 0 0-.368-1.046A11.947 11.947 0 0 0 22 16c-.693 0-1.372.059-2.033.172Z" fill="#7e7e7e" class="fill-000000"></path></svg>