<svg viewBox="0 0 32 32" xml:space="preserve" xmlns="http://www.w3.org/2000/svg" fill-rule="evenodd" clip-rule="evenodd" stroke-linejoin="round" stroke-miterlimit="2"><path d="M31 10a5.004 5.004 0 0 0-1.464-3.536A5.004 5.004 0 0 0 26 5H6a5.004 5.004 0 0 0-3.536 1.464A5.004 5.004 0 0 0 1 10v12c0 1.326.527 2.598 1.464 3.536A5.004 5.004 0 0 0 6 27h20a5.004 5.004 0 0 0 3.536-1.464A5.004 5.004 0 0 0 31 22V10ZM4.444 9.779l8.372 6.894a5 5 0 0 0 6.365-.007l8.413-6.959a1 1 0 0 0-1.275-1.541l-8.412 6.959a3.001 3.001 0 0 1-3.82.004L5.715 8.235a1 1 0 1 0-1.271 1.544Z" fill="#7e7e7e" class="fill-000000"></path></svg>