<svg viewBox="0 0 32 32" xml:space="preserve" xmlns="http://www.w3.org/2000/svg" fill-rule="evenodd" clip-rule="evenodd" stroke-linejoin="round" stroke-miterlimit="2"><path d="m24.787 19.13 2.122-2.121c3.317-3.317 3.317-8.704 0-12.021-3.318-3.317-8.704-3.317-12.021 0L12.766 7.11a1.501 1.501 0 0 0 2.122 2.121l2.121-2.121a5.501 5.501 0 0 1 7.778 0 5.501 5.501 0 0 1 0 7.778l-2.121 2.121a1.5 1.5 0 1 0 2.121 2.121ZM7.11 12.766l-2.122 2.122c-3.317 3.317-3.317 8.703 0 12.021 3.317 3.317 8.704 3.317 12.021 0l2.121-2.122a1.5 1.5 0 1 0-2.121-2.121l-2.121 2.121a5.501 5.501 0 0 1-7.778 0 5.501 5.501 0 0 1 0-7.778l2.121-2.121a1.501 1.501 0 0 0-2.121-2.122Z" fill="#7e7e7e" class="fill-000000"></path><path d="m11.352 22.666 11.314-11.314a1.5 1.5 0 1 0-2.121-2.121L9.231 20.545a1.5 1.5 0 1 0 2.121 2.121Z" fill="#7e7e7e" class="fill-000000"></path></svg>