<svg viewBox="0 0 256 256" xmlns="http://www.w3.org/2000/svg"><path fill="none" d="M0 0h256v256H0z"></path><path d="M165.8 224H208a16 16 0 0 0 16-16v-37.7a7.9 7.9 0 0 0-3.6-6.6 7.7 7.7 0 0 0-7.5-.7 24.3 24.3 0 0 1-8.9 1.7c-13.2 0-24-11.1-24-24.7s10.8-24.7 24-24.7a24.3 24.3 0 0 1 8.9 1.7 7.7 7.7 0 0 0 7.5-.7 7.9 7.9 0 0 0 3.6-6.6V72a16 16 0 0 0-16-16h-36.2c.1-1.3.2-2.7.2-4a36 36 0 0 0-72 0c0 1.3.1 2.7.2 4H64a16 16 0 0 0-16 16v32.2l-4-.2a36 36 0 0 0 0 72l4-.2V208a16 16 0 0 0 16 16h42.2" fill="#7e7e7e" class="fill-000000"></path></svg>